<?xml version="1.0" encoding="UTF-8"?>
<svg id="Layer_2" data-name="Layer 2" xmlns="http://www.w3.org/2000/svg" viewBox="0 0 14.8 9.64">
  <defs>
    <style>
      .cls-1 {
        fill: #bfbfbf;
        stroke-width: 0px;
      }
    </style>
  </defs>
  <path class="cls-1" d="m1.61,0c.14,0,.29-.01.42.03.66.22.57.13.76.79.25.86.49,1.72.73,2.58.03.12.09.17.2.21,2.56.89,5.12,1.78,7.68,2.68.54.19,1.08.42,1.6.68.23.12.41.35.61.53.28.25.59.49.84.77.15.16.26.38.32.6.11.37-.09.65-.46.73-.35.08-.7.04-1.04-.06-.72-.22-1.43-.47-2.14-.71-.71-.24-1.42-.5-2.13-.74-.12-.04-.24-.06-.37-.06-1.35-.01-2.7-.02-4.05-.04-.15,0-.31-.03-.46-.08-.29-.09-.57-.2-.86-.3-.19-.07-.27-.17-.27-.32,0-.15.11-.26.31-.3.58-.12,1.16-.24,1.76-.37-.07-.04-.11-.07-.15-.09-1.54-.83-3.08-1.66-4.62-2.49-.03-.02-.07-.03-.1-.05-.18-.11-.25-.3-.17-.48.08-.18.26-.26.47-.2.15.04.3.1.47.16.01-.06.02-.11.03-.16.13-.95.27-1.91.4-2.86.01-.1.04-.2.07-.3.05-.04.09-.09.14-.13Z"/>
</svg>