<?xml version="1.0" encoding="UTF-8"?>
<svg id="Layer_1" data-name="Layer 1" xmlns="http://www.w3.org/2000/svg" viewBox="0 0 240 240">
  <defs>
    <style>
      .cls-1 {
        fill: #ff6477;
        stroke-width: 0px;
      }
    </style>
  </defs>
  <path class="cls-1" d="M121.67,234.18h-3.57c-1.09-.16-2.18-.44-3.28-.47-9.94-.26-19.62-2.04-29.07-5.02C39.35,214.02,6.16,171.41,5.85,119.91c-.07-11.62,1.74-23.06,5.25-34.2C28.58,30.14,85.37-3.53,142.47,8.12c26.83,5.47,48.98,19.03,66.2,40.34,13.98,17.3,22.17,37.09,24.49,59.26.36,3.46.66,6.92.99,10.38v3.57c-.16,1.09-.36,2.18-.48,3.27-.68,5.89-.85,11.88-2.1,17.64-7.3,33.62-25.83,59.25-55.61,76.51-15.66,9.08-32.67,13.9-50.8,14.6-1.17.04-2.33.32-3.5.48ZM119.78,212.92c51.04.44,93.1-41.96,93.21-92.82.11-51.12-41.99-93.17-92.78-93.33-51.2-.17-93.32,42.02-93.43,92.9-.11,51.14,42.06,93.59,93,93.25Z"/>
  <path class="cls-1" d="M105.76,98.45c0-9.81,0-19.63,0-29.44,0-7.39,2.92-11.18,10.2-12.57,4.6-.87,9.18-.53,13.29,2.16,3.02,1.97,4.72,4.77,4.73,8.36.05,21.04.06,42.08,0,63.12-.01,4.46-2.47,7.54-6.45,9.34-4.91,2.22-9.94,2.23-14.92.24-4.54-1.82-6.84-5.27-6.84-10.2,0-10.33,0-20.67,0-31Z"/>
  <path class="cls-1" d="M119.89,183.75c-7.72,0-14.06-6.15-13.94-13.83.13-8.09,5.97-13.91,14.04-14.02,7.67-.11,13.89,6.45,13.85,14.01-.04,7.69-6.24,13.84-13.96,13.84Z"/>
</svg>