<?xml version="1.0" encoding="UTF-8"?>
<svg id="Layer_1" data-name="Layer 1" xmlns="http://www.w3.org/2000/svg" viewBox="0 0 20 20">
  <defs>
    <style>
      .cls-1 {
        stroke-width: 0px;
      }
    </style>
  </defs>
  <path class="cls-1" d="M12.84,19.05h-5.67c0-.07,0-.13,0-.19,0-2.6,0-5.2,0-7.8,0-.48.21-.69.69-.69,1.44,0,2.89,0,4.33,0,.43,0,.65.23.65.66,0,2.62,0,5.23,0,7.85,0,.05,0,.11,0,.17Z"/>
  <path class="cls-1" d="M6.03,19.06c-.37,0-.72,0-1.06,0-.98,0-1.95,0-2.93,0-.37,0-.53-.16-.53-.54,0-1.75,0-3.5,0-5.24,0-.43.22-.64.65-.64,1.23,0,2.47,0,3.7,0,.05,0,.11,0,.17,0v6.42Z"/>
  <path class="cls-1" d="M13.97,19.06v-4.15h.19c1.23,0,2.46,0,3.69,0,.44,0,.65.22.65.66,0,.99,0,1.97,0,2.96,0,.38-.16.54-.55.54-1.27,0-2.54,0-3.81,0-.05,0-.11,0-.17,0Z"/>
  <path class="cls-1" d="M9.79,1.05l-1.17,1.75s-.08.08-.14.1l-2.02.57c-.17.05-.24.25-.13.39l1.28,1.65s.05.1.05.16l-.06,2.12c0,.18.17.3.34.24l1.98-.72c.06-.02.12-.02.17,0l1.98.72c.17.06.34-.07.33-.24l-.07-2.07c0-.06.02-.12.05-.16l1.31-1.69c.11-.14.04-.34-.12-.39l-2.13-.68c-.05-.02-.1-.05-.13-.1l-1.1-1.65c-.1-.15-.32-.15-.41,0Z"/>
</svg>