<?xml version="1.0" encoding="UTF-8"?>
<svg id="Layer_2" data-name="Layer 2" xmlns="http://www.w3.org/2000/svg" viewBox="0 0 32.25 43.53">
  <defs>
    <style>
      .cls-1 {
        fill: #666;
        stroke-width: 0px;
      }
    </style>
  </defs>
  <path class="cls-1" d="m15.19,0c.62,0,1.25,0,1.87,0,.11.02.22.06.33.07,5.87.62,10.42,5.52,10.56,11.42.05,2,.01,4,.02,5.99,0,.17,0,.33,0,.54.53,0,1,0,1.48,0,1.78,0,2.79,1.01,2.79,2.8,0,6.65,0,13.29,0,19.94,0,1.75-1.02,2.77-2.77,2.77-4.89,0-9.78,0-14.66,0-4.05,0-8.1,0-12.16,0-.71,0-1.34-.21-1.86-.7C.19,42.27,0,41.56,0,40.76c0-4.53,0-9.07,0-13.6C0,25.03,0,22.91,0,20.78c0-1.72,1.04-2.75,2.75-2.75.49,0,.98,0,1.52,0,0-.28,0-.52,0-.76.03-2.32-.15-4.67.15-6.96.61-4.72,3.32-7.92,7.76-9.61C13.14.34,14.19.23,15.19,0Zm8.54,18c0-.12.02-.21.02-.31,0-1.95,0-3.91,0-5.86,0-.39-.03-.79-.1-1.18-.76-4.25-4.49-6.94-8.76-6.32-3.3.48-6.13,3.41-6.31,6.73-.13,2.27-.05,4.56-.07,6.84,0,.04.03.07.05.11h15.18Zm-4.96,17.99c-.02-.15-.04-.26-.06-.37-.26-1.24-.52-2.49-.79-3.73-.06-.29-.03-.47.22-.68.83-.66,1.23-1.55,1.18-2.6-.08-1.51-1.16-2.75-2.59-3.01-1.47-.27-2.92.49-3.53,1.84-.62,1.37-.23,2.88.96,3.85.11.09.19.3.17.44-.11.64-.26,1.27-.39,1.91-.16.77-.32,1.54-.48,2.35h5.31Z"/>
</svg>