<?xml version="1.0" encoding="UTF-8"?>
<svg id="Layer_2" data-name="Layer 2" xmlns="http://www.w3.org/2000/svg" viewBox="0 0 12 12">
  <defs>
    <style>
      .cls-1 {
        fill: #bfbfbf;
        stroke-width: 0px;
      }
    </style>
  </defs>
  <path class="cls-1" d="m6,0C2.69,0,0,2.69,0,6s2.69,6,6,6,6-2.69,6-6S9.31,0,6,0Zm.61,8.9h-1.79v-1.58h1.79v1.58Zm1.46-3.99c-.14.23-.42.51-.84.85-.3.24-.48.42-.56.57-.08.14-.12.33-.12.56h-1.67v-.17c0-.28.03-.51.1-.69.06-.18.16-.34.29-.49.13-.15.41-.4.86-.77.24-.19.36-.37.36-.53s-.05-.29-.14-.38c-.09-.09-.24-.13-.43-.13-.21,0-.38.07-.52.21-.14.14-.22.38-.26.72l-1.71-.21c.06-.63.29-1.13.68-1.51.4-.38,1.01-.57,1.83-.57.64,0,1.15.13,1.55.4.53.36.8.84.8,1.44,0,.25-.07.49-.21.72Z"/>
</svg>