<?xml version="1.0" encoding="UTF-8"?>
<svg id="Layer_2" data-name="Layer 2" xmlns="http://www.w3.org/2000/svg" viewBox="0 0 15.3 9.04">
  <defs>
    <style>
      .cls-1 {
        fill: #bfbfbf;
        stroke-width: 0px;
      }
    </style>
  </defs>
  <path class="cls-1" d="m0,5.53c.09-.11.16-.25.27-.33.57-.41.44-.38,1.09-.15.84.31,1.68.61,2.51.93.11.04.19.02.28-.04,2.23-1.55,4.45-3.1,6.69-4.63.48-.33.97-.63,1.49-.9.23-.12.52-.13.79-.18.37-.08.74-.19,1.12-.23.22-.02.46.02.67.09.36.13.47.45.32.81-.14.33-.38.59-.66.8-.6.45-1.22.88-1.84,1.31-.62.43-1.24.86-1.85,1.29-.1.07-.19.16-.27.26-.81,1.08-1.61,2.17-2.41,3.25-.09.12-.21.23-.33.32-.24.18-.5.35-.75.52-.17.11-.3.12-.42.02-.12-.1-.14-.24-.06-.43.24-.54.48-1.08.74-1.64-.07.03-.12.05-.16.07-1.58.76-3.15,1.51-4.73,2.27-.03.02-.07.03-.1.05-.2.08-.39.03-.49-.14-.1-.17-.06-.37.11-.5.13-.1.26-.19.4-.28-.04-.05-.08-.08-.11-.12-.69-.67-1.38-1.34-2.08-2.01-.07-.07-.14-.15-.21-.23,0-.06-.02-.12-.02-.19Z"/>
</svg>